<?xml version="1.0"?>
<!DOCTYPE svg PUBLIC "-//W3C//DTD SVG 1.1//EN"
         "http://www.w3.org/Graphics/SVG/1.1/DTD/svg11.dtd">
<svg xmlns="http://www.w3.org/2000/svg"
     xmlns:xlink="http://www.w3.org/1999/xlink" width="300" height="300">
		<g transform="translate(100,100)">
			<g class="slice">
				<path fill="#ff228f" d="M5.190381813189989,-99.8652088398823A100,100 0 0,1 10.366771274658875,-99.46119873266613L0,0Z"></path>
			</g>
			<g class="slice">
				<path fill="#58c700" d="M2.596065870867514,99.96629653035126A100,100 0 0,1 -2.5960658708681676,99.96629653035124L0,0Z"></path>
			</g>
			<g class="slice">
				<path fill="#e92297" d="M10.366771274658875,-99.46119873266613A100,100 0 0,1 15.515213753592064,-98.78905881817252L0,0Z"></path>
			</g>
			<g class="slice">
				<path fill="#dd219b" d="M15.515213753592064,-98.78905881817252A100,100 0 0,1 20.621829959298815,-97.85060106677815L0,0Z"></path>
			</g>
			<g class="slice">
				<path fill="#d221a0" d="M20.621829959298815,-97.85060106677815A100,100 0 0,1 25.672853357326314,-96.6483553946637L0,0Z"></path>
			</g>
			<g class="slice">
				<path fill="#c621a4" d="M25.672853357326314,-96.6483553946637A100,100 0 0,1 30.654667281602503,-95.18556284360696L0,0Z"></path>
			</g>
			<g class="slice">
				<path fill="#ba20a8" d="M30.654667281602503,-95.18556284360696A100,100 0 0,1 35.553841642560485,-93.46616684370731L0,0Z"></path>
			</g>
			<g class="slice">
				<path fill="#ae20ac" d="M35.553841642560485,-93.46616684370731A100,100 0 0,1 40.35716913228564,-91.49480258259531L0,0Z"></path>
			</g>
			<g class="slice">
				<path fill="#a320b1" d="M40.35716913228564,-91.49480258259531A100,100 0 0,1 45.051700829082684,-89.27678450978637L0,0Z"></path>
			</g>
			<g class="slice">
				<path fill="#971fb5" d="M45.051700829082684,-89.27678450978637A100,100 0 0,1 49.624781105479165,-86.81809200986437L0,0Z"></path>
			</g>
			<g class="slice">
				<path fill="#8b1fb9" d="M49.624781105479165,-86.81809200986437A100,100 0 0,1 54.064081745559754,-84.12535328311812L0,0Z"></path>
			</g>
			<g class="slice">
				<path fill="#7d1fb9" d="M54.064081745559754,-84.12535328311812A100,100 0 0,1 58.35763517965671,-81.205827477085L0,0Z"></path>
			</g>
			<g class="slice">
				<path fill="#6f20b9" d="M58.35763517965671,-81.205827477085A100,100 0 0,1 62.49386674680184,-78.06738511717282L0,0Z"></path>
			</g>
			<g class="slice">
				<path fill="#6120b9" d="M62.49386674680184,-78.06738511717282A100,100 0 0,1 66.46162589796614,-74.71848688911464L0,0Z"></path>
			</g>
			<g class="slice">
				<path fill="#5320b9" d="M66.46162589796614,-74.71848688911464A100,100 0 0,1 70.25021625596852,-71.16816083045603L0,0Z"></path>
			</g>
			<g class="slice">
				<path fill="#4621b9" d="M70.25021625596852,-71.16816083045603A100,100 0 0,1 73.84942445101768,-67.42597799256181L0,0Z"></path>
			</g>
			<g class="slice">
				<path fill="#3821b8" d="M73.84942445101768,-67.42597799256181A100,100 0 0,1 77.24954765415133,-63.50202663875385L0,0Z"></path>
			</g>
			<g class="slice">
				<path fill="#2a21b8" d="M77.24954765415133,-63.50202663875385A100,100 0 0,1 80.44141973434755,-59.40688504813664L0,0Z"></path>
			</g>
			<g class="slice">
				<path fill="#1c21b8" d="M80.44141973434755,-59.40688504813664A100,100 0 0,1 83.41643596879364,-55.15159299842708L0,0Z"></path>
			</g>
			<g class="slice">
				<path fill="#0e22b8" d="M83.41643596879364,-55.15159299842708A100,100 0 0,1 86.16657623969738,-50.74762200466558L0,0Z"></path>
			</g>
			<g class="slice">
				<path fill="#0022b8" d="M86.16657623969738,-50.74762200466558A100,100 0 0,1 88.68442665510675,-46.206844394039614L0,0Z"></path>
			</g>
			<g class="slice">
				<path fill="#002bb9" d="M88.68442665510675,-46.206844394039614A100,100 0 0,1 90.96319953545185,-41.541501300188635L0,0Z"></path>
			</g>
			<g class="slice">
				<path fill="#0033bb" d="M90.96319953545185,-41.541501300188635A100,100 0 0,1 92.99675171192891,-36.764169663272L0,0Z"></path>
			</g>
			<g class="slice">
				<path fill="#003cbc" d="M92.99675171192891,-36.764169663272A100,100 0 0,1 94.7796010873974,-31.887728324761838L0,0Z"></path>
			</g>
			<g class="slice">
				<path fill="#0045bd" d="M94.7796010873974,-31.887728324761838A100,100 0 0,1 96.30694141514465,-26.92532330836342L0,0Z"></path>
			</g>
			<g class="slice">
				<path fill="#004ebf" d="M96.30694141514465,-26.92532330836342A100,100 0 0,1 97.57465525567719,-21.890332380659437L0,0Z"></path>
			</g>
			<g class="slice">
				<path fill="#0056c0" d="M97.57465525567719,-21.890332380659437A100,100 0 0,1 98.57932507660982,-16.796328987016437L0,0Z"></path>
			</g>
			<g class="slice">
				<path fill="#005fc1" d="M98.57932507660982,-16.796328987016437A100,100 0 0,1 99.31824246572852,-11.657045659975864L0,0Z"></path>
			</g>
			<g class="slice">
				<path fill="#0068c2" d="M99.31824246572852,-11.657045659975864A100,100 0 0,1 99.78941543239108,-6.486336998774231L0,0Z"></path>
			</g>
			<g class="slice">
				<path fill="#0070c4" d="M99.78941543239108,-6.486336998774231A100,100 0 0,1 99.99157377758169,-1.2981423197930146L0,0Z"></path>
			</g>
			<g class="slice">
				<path fill="#0079c5" d="M99.99157377758169,-1.2981423197930146A100,100 0 0,1 99.92417251814281,3.893551921373857L0,0Z"></path>
			</g>
			<g class="slice">
				<path fill="#007fc6" d="M99.92417251814281,3.893551921373857A100,100 0 0,1 99.5873933559535,9.074749834931518L0,0Z"></path>
			</g>
			<g class="slice">
				<path fill="#0085c8" d="M99.5873933559535,9.074749834931518A100,100 0 0,1 98.98214418809326,14.231483827328614L0,0Z"></path>
			</g>
			<g class="slice">
				<path fill="#008ac9" d="M98.98214418809326,14.231483827328614A100,100 0 0,1 98.11005665931202,19.349852255420075L0,0Z"></path>
			</g>
			<g class="slice">
				<path fill="#0090cb" d="M98.11005665931202,19.349852255420075A100,100 0 0,1 96.97348176340435,24.41605690283925L0,0Z"></path>
			</g>
			<g class="slice">
				<path fill="#0096cc" d="M96.97348176340435,24.41605690283925A100,100 0 0,1 95.57548350534584,29.416440177549763L0,0Z"></path>
			</g>
			<g class="slice">
				<path fill="#009ccd" d="M95.57548350534584,29.416440177549763A100,100 0 0,1 93.91983064127743,34.337521930298976L0,0Z"></path>
			</g>
			<g class="slice">
				<path fill="#00a2cf" d="M93.91983064127743,34.337521930298976A100,100 0 0,1 92.01098651860514,39.16603579471716L0,0Z"></path>
			</g>
			<g class="slice">
				<path fill="#00a7d0" d="M92.01098651860514,39.16603579471716A100,100 0 0,1 89.8540970436045,43.888964951095694L0,0Z"></path>
			</g>
			<g class="slice">
				<path fill="#00add2" d="M89.8540970436045,43.888964951095694A100,100 0 0,1 87.45497680896715,48.493577217431785L0,0Z"></path>
			</g>
			<g class="slice">
				<path fill="#00b3d3" d="M87.45497680896715,48.493577217431785A100,100 0 0,1 84.82009341868685,52.96745937313999L0,0Z"></path>
			</g>
			<g class="slice">
				<path fill="#00b4be" d="M84.82009341868685,52.96745937313999A100,100 0 0,1 81.95655005254264,57.298550622900336L0,0Z"></path>
			</g>
			<g class="slice">
				<path fill="#00b4a9" d="M81.95655005254264,57.298550622900336A100,100 0 0,1 78.8720663171819,61.47517511043022L0,0Z"></path>
			</g>
			<g class="slice">
				<path fill="#00b594" d="M78.8720663171819,61.47517511043022A100,100 0 0,1 75.57495743542572,65.48607339452865L0,0Z"></path>
			</g>
			<g class="slice">
				<path fill="#00b57f" d="M75.57495743542572,65.48607339452865A100,100 0 0,1 72.07411182989819,69.32043280253903L0,0Z"></path>
			</g>
			<g class="slice">
				<path fill="#00b66a" d="M72.07411182989819,69.32043280253903A100,100 0 0,1 68.37896716141057,72.96791657940314L0,0Z"></path>
			</g>
			<g class="slice">
				<path fill="#00b654" d="M68.37896716141057,72.96791657940314A100,100 0 0,1 64.49948488669624,76.41869175372504L0,0Z"></path>
			</g>
			<g class="slice">
				<path fill="#00b73f" d="M64.49948488669624,76.41869175372504A100,100 0 0,1 60.44612340408446,79.66345564572373L0,0Z"></path>
			</g>
			<g class="slice">
				<path fill="#00b72a" d="M60.44612340408446,79.66345564572373A100,100 0 0,1 56.229809859507604,82.693460945613L0,0Z"></path>
			</g>
			<g class="slice">
				<path fill="#00b815" d="M56.229809859507604,82.693460945613A100,100 0 0,1 51.861910688847544,85.50053929480211L0,0Z"></path>
			</g>
			<g class="slice">
				<path fill="#00b800" d="M51.861910688847544,85.50053929480211A100,100 0 0,1 47.35420097603408,88.07712330634654L0,0Z"></path>
			</g>
			<g class="slice">
				<path fill="#0aba00" d="M47.35420097603408,88.07712330634654A100,100 0 0,1 42.71883270950049,90.41626696528513L0,0Z"></path>
			</g>
			<g class="slice">
				<path fill="#14bb00" d="M42.71883270950049,90.41626696528513A100,100 0 0,1 37.96830202257115,92.51166435386847L0,0Z"></path>
			</g>
			<g class="slice">
				<path fill="#1dbd00" d="M37.96830202257115,92.51166435386847A100,100 0 0,1 33.11541550609539,94.35766665119829L0,0Z"></path>
			</g>
			<g class="slice">
				<path fill="#27bf00" d="M33.11541550609539,94.35766665119829A100,100 0 0,1 28.1732556841427,95.94929736144981L0,0Z"></path>
			</g>
			<g class="slice">
				<path fill="#31c100" d="M28.1732556841427,95.94929736144981A100,100 0 0,1 23.155145745830854,97.2822657296248L0,0Z"></path>
			</g>
			<g class="slice">
				<path fill="#3bc200" d="M23.155145745830854,97.2822657296248A100,100 0 0,1 18.074613628363508,98.3529783086683L0,0Z"></path>
			</g>
			<g class="slice">
				<path fill="#45c400" d="M18.074613628363508,98.3529783086683A100,100 0 0,1 12.94535554810324,99.15854864676668L0,0Z"></path>
			</g>
			<g class="slice">
				<path fill="#4ec600" d="M12.94535554810324,99.15854864676668A100,100 0 0,1 7.781199077993673,99.69680506871136L0,0Z"></path>
			</g>
			<g class="slice">
				<path fill="#58c700" d="M7.781199077993673,99.69680506871136A100,100 0 0,1 2.596065870867514,99.96629653035126L0,0Z"></path>
			</g>
			<g class="slice">
				<path fill="#fd2523" d="M6.123031769111886e-15,-100A100,100 0 0,1 5.190381813189989,-99.8652088398823L0,0Z"></path>
			</g>
			<g class="slice">
				<path fill="#72ce00" d="M-2.5960658708681676,99.96629653035124A100,100 0 0,1 -7.781199077994325,99.6968050687113L0,0Z"></path>
			</g>
			<g class="slice">
				<path fill="#81d300" d="M-7.781199077994325,99.6968050687113A100,100 0 0,1 -12.945355548103887,99.15854864676659L0,0Z"></path>
			</g>
			<g class="slice">
				<path fill="#91d700" d="M-12.945355548103887,99.15854864676659A100,100 0 0,1 -18.07461362836415,98.35297830866818L0,0Z"></path>
			</g>
			<g class="slice">
				<path fill="#a1dc00" d="M-18.07461362836415,98.35297830866818A100,100 0 0,1 -23.155145745831494,97.28226572962465L0,0Z"></path>
			</g>
			<g class="slice">
				<path fill="#b1e100" d="M-23.155145745831494,97.28226572962465A100,100 0 0,1 -28.173255684143335,95.94929736144964L0,0Z"></path>
			</g>
			<g class="slice">
				<path fill="#c0e600" d="M-28.173255684143335,95.94929736144964A100,100 0 0,1 -33.11541550609601,94.35766665119807L0,0Z"></path>
			</g>
			<g class="slice">
				<path fill="#d0eb00" d="M-33.11541550609601,94.35766665119807A100,100 0 0,1 -37.96830202257176,92.51166435386823L0,0Z"></path>
			</g>
			<g class="slice">
				<path fill="#e0ef00" d="M-37.96830202257176,92.51166435386823A100,100 0 0,1 -42.71883270950108,90.41626696528485L0,0Z"></path>
			</g>
			<g class="slice">
				<path fill="#eff400" d="M-42.71883270950108,90.41626696528485A100,100 0 0,1 -47.354200976034655,88.07712330634622L0,0Z"></path>
			</g>
			<g class="slice">
				<path fill="#fff900" d="M-47.354200976034655,88.07712330634622A100,100 0 0,1 -51.8619106888481,85.50053929480178L0,0Z"></path>
			</g>
			<g class="slice">
				<path fill="#fff500" d="M-51.8619106888481,85.50053929480178A100,100 0 0,1 -56.22980985950814,82.69346094561263L0,0Z"></path>
			</g>
			<g class="slice">
				<path fill="#fff100" d="M-56.22980985950814,82.69346094561263A100,100 0 0,1 -60.44612340408497,79.66345564572335L0,0Z"></path>
			</g>
			<g class="slice">
				<path fill="#ffec00" d="M-60.44612340408497,79.66345564572335A100,100 0 0,1 -64.49948488669673,76.41869175372462L0,0Z"></path>
			</g>
			<g class="slice">
				<path fill="#ffe800" d="M-64.49948488669673,76.41869175372462A100,100 0 0,1 -68.37896716141105,72.96791657940268L0,0Z"></path>
			</g>
			<g class="slice">
				<path fill="#ffe400" d="M-68.37896716141105,72.96791657940268A100,100 0 0,1 -72.07411182989864,69.32043280253856L0,0Z"></path>
			</g>
			<g class="slice">
				<path fill="#ffe000" d="M-72.07411182989864,69.32043280253856A100,100 0 0,1 -75.57495743542614,65.48607339452815L0,0Z"></path>
			</g>
			<g class="slice">
				<path fill="#ffdc00" d="M-75.57495743542614,65.48607339452815A100,100 0 0,1 -78.87206631718227,61.475175110429745L0,0Z"></path>
			</g>
			<g class="slice">
				<path fill="#ffd700" d="M-78.87206631718227,61.475175110429745A100,100 0 0,1 -81.95655005254297,57.29855062289988L0,0Z"></path>
			</g>
			<g class="slice">
				<path fill="#ffd300" d="M-81.95655005254297,57.29855062289988A100,100 0 0,1 -84.82009341868712,52.96745937313955L0,0Z"></path>
			</g>
			<g class="slice">
				<path fill="#ffcf00" d="M-84.82009341868712,52.96745937313955A100,100 0 0,1 -87.45497680896737,48.49357721743137L0,0Z"></path>
			</g>
			<g class="slice">
				<path fill="#ffcb00" d="M-87.45497680896737,48.49357721743137A100,100 0 0,1 -89.85409704360468,43.8889649510953L0,0Z"></path>
			</g>
			<g class="slice">
				<path fill="#ffc600" d="M-89.85409704360468,43.8889649510953A100,100 0 0,1 -92.01098651860529,39.16603579471678L0,0Z"></path>
			</g>
			<g class="slice">
				<path fill="#ffc200" d="M-92.01098651860529,39.16603579471678A100,100 0 0,1 -93.91983064127757,34.337521930298635L0,0Z"></path>
			</g>
			<g class="slice">
				<path fill="#ffbe00" d="M-93.91983064127757,34.337521930298635A100,100 0 0,1 -95.57548350534594,29.416440177549458L0,0Z"></path>
			</g>
			<g class="slice">
				<path fill="#ffba00" d="M-95.57548350534594,29.416440177549458A100,100 0 0,1 -96.97348176340441,24.416056902838985L0,0Z"></path>
			</g>
			<g class="slice">
				<path fill="#ffb500" d="M-96.97348176340441,24.416056902838985A100,100 0 0,1 -98.11005665931206,19.349852255419847L0,0Z"></path>
			</g>
			<g class="slice">
				<path fill="#ffb100" d="M-98.11005665931206,19.349852255419847A100,100 0 0,1 -98.98214418809329,14.23148382732843L0,0Z"></path>
			</g>
			<g class="slice">
				<path fill="#ffad00" d="M-98.98214418809329,14.23148382732843A100,100 0 0,1 -99.58739335595351,9.074749834931376L0,0Z"></path>
			</g>
			<g class="slice">
				<path fill="#ffa800" d="M-99.58739335595351,9.074749834931376A100,100 0 0,1 -99.92417251814281,3.8935519213737577L0,0Z"></path>
			</g>
			<g class="slice">
				<path fill="#ffa400" d="M-99.92417251814281,3.8935519213737577A100,100 0 0,1 -99.99157377758169,-1.2981423197930693L0,0Z"></path>
			</g>
			<g class="slice">
				<path fill="#ffa000" d="M-99.99157377758169,-1.2981423197930693A100,100 0 0,1 -99.78941543239108,-6.486336998774241L0,0Z"></path>
			</g>
			<g class="slice">
				<path fill="#ff9c00" d="M-99.78941543239108,-6.486336998774241A100,100 0 0,1 -99.31824246572852,-11.65704565997583L0,0Z"></path>
			</g>
			<g class="slice">
				<path fill="#ff9800" d="M-99.31824246572852,-11.65704565997583A100,100 0 0,1 -98.57932507660982,-16.79632898701636L0,0Z"></path>
			</g>
			<g class="slice">
				<path fill="#ff9400" d="M-98.57932507660982,-16.79632898701636A100,100 0 0,1 -97.57465525567723,-21.89033238065932L0,0Z"></path>
			</g>
			<g class="slice">
				<path fill="#ff9000" d="M-97.57465525567723,-21.89033238065932A100,100 0 0,1 -96.30694141514469,-26.925323308363257L0,0Z"></path>
			</g>
			<g class="slice">
				<path fill="#ff8c00" d="M-96.30694141514469,-26.925323308363257A100,100 0 0,1 -94.77960108739747,-31.887728324761632L0,0Z"></path>
			</g>
			<g class="slice">
				<path fill="#ff8800" d="M-94.77960108739747,-31.887728324761632A100,100 0 0,1 -92.996751711929,-36.76416966327176L0,0Z"></path>
			</g>
			<g class="slice">
				<path fill="#ff8400" d="M-92.996751711929,-36.76416966327176A100,100 0 0,1 -90.96319953545196,-41.541501300188365L0,0Z"></path>
			</g>
			<g class="slice">
				<path fill="#ff8000" d="M-90.96319953545196,-41.541501300188365A100,100 0 0,1 -88.68442665510692,-46.20684439403931L0,0Z"></path>
			</g>
			<g class="slice">
				<path fill="#ff7c00" d="M-88.68442665510692,-46.20684439403931A100,100 0 0,1 -86.16657623969758,-50.747622004665246L0,0Z"></path>
			</g>
			<g class="slice">
				<path fill="#ff7702" d="M-86.16657623969758,-50.747622004665246A100,100 0 0,1 -83.41643596879388,-55.15159299842672L0,0Z"></path>
			</g>
			<g class="slice">
				<path fill="#ff7304" d="M-83.41643596879388,-55.15159299842672A100,100 0 0,1 -80.44141973434783,-59.40688504813626L0,0Z"></path>
			</g>
			<g class="slice">
				<path fill="#ff6e06" d="M-80.44141973434783,-59.40688504813626A100,100 0 0,1 -77.24954765415164,-63.50202663875346L0,0Z"></path>
			</g>
			<g class="slice">
				<path fill="#ff6a07" d="M-77.24954765415164,-63.50202663875346A100,100 0 0,1 -73.84942445101805,-67.42597799256143L0,0Z"></path>
			</g>
			<g class="slice">
				<path fill="#ff6509" d="M-73.84942445101805,-67.42597799256143A100,100 0 0,1 -70.25021625596892,-71.16816083045563L0,0Z"></path>
			</g>
			<g class="slice">
				<path fill="#fe600b" d="M-70.25021625596892,-71.16816083045563A100,100 0 0,1 -66.46162589796658,-74.71848688911425L0,0Z"></path>
			</g>
			<g class="slice">
				<path fill="#fe5c0d" d="M-66.46162589796658,-74.71848688911425A100,100 0 0,1 -62.49386674680234,-78.06738511717242L0,0Z"></path>
			</g>
			<g class="slice">
				<path fill="#fe570f" d="M-62.49386674680234,-78.06738511717242A100,100 0 0,1 -58.35763517965725,-81.20582747708461L0,0Z"></path>
			</g>
			<g class="slice">
				<path fill="#fe5311" d="M-58.35763517965725,-81.20582747708461A100,100 0 0,1 -54.064081745560344,-84.12535328311775L0,0Z"></path>
			</g>
			<g class="slice">
				<path fill="#fe4e13" d="M-54.064081745560344,-84.12535328311775A100,100 0 0,1 -49.62478110547979,-86.81809200986402L0,0Z"></path>
			</g>
			<g class="slice">
				<path fill="#fe4914" d="M-49.62478110547979,-86.81809200986402A100,100 0 0,1 -45.051700829083366,-89.27678450978603L0,0Z"></path>
			</g>
			<g class="slice">
				<path fill="#fe4516" d="M-45.051700829083366,-89.27678450978603A100,100 0 0,1 -40.35716913228639,-91.49480258259499L0,0Z"></path>
			</g>
			<g class="slice">
				<path fill="#fe4018" d="M-40.35716913228639,-91.49480258259499A100,100 0 0,1 -35.55384164256127,-93.46616684370701L0,0Z"></path>
			</g>
			<g class="slice">
				<path fill="#fe3c1a" d="M-35.55384164256127,-93.46616684370701A100,100 0 0,1 -30.65466728160332,-95.1855628436067L0,0Z"></path>
			</g>
			<g class="slice">
				<path fill="#fe371c" d="M-30.65466728160332,-95.1855628436067A100,100 0 0,1 -25.672853357327185,-96.64835539466347L0,0Z"></path>
			</g>
			<g class="slice">
				<path fill="#fd321e" d="M-25.672853357327185,-96.64835539466347A100,100 0 0,1 -20.62182995929974,-97.85060106677795L0,0Z"></path>
			</g>
			<g class="slice">
				<path fill="#fd2e1f" d="M-20.62182995929974,-97.85060106677795A100,100 0 0,1 -15.515213753593018,-98.78905881817236L0,0Z"></path>
			</g>
			<g class="slice">
				<path fill="#fd2921" d="M-15.515213753593018,-98.78905881817236A100,100 0 0,1 -10.366771274659882,-99.46119873266603L0,0Z"></path>
			</g>
			<g class="slice">
				<path fill="#fd2523" d="M-10.366771274659882,-99.46119873266603A100,100 0 0,1 -5.190381813191021,-99.86520883988224L0,0Z"></path>
			</g>
			<g class="slice">
				<path fill="#fd2025" d="M-5.190381813191021,-99.86520883988224A100,100 0 0,1 -1.084183198947486e-12,-100L0,0Z"></path>
			</g>
		</g>
	</svg>